<?xml version="1.0" standalone="no"?>
<!DOCTYPE svg PUBLIC "-//W3C//DTD SVG 20010904//EN"
 "http://www.w3.org/TR/2001/REC-SVG-20010904/DTD/svg10.dtd">
<svg version="1.0" xmlns="http://www.w3.org/2000/svg"
 width="300.000000pt" height="214.000000pt" viewBox="0 0 300.000000 214.000000"
 preserveAspectRatio="xMidYMid meet">
<metadata>
Created by potrace 1.10, written by Peter Selinger 2001-2011
</metadata>
<g transform="translate(0.000000,214.000000) scale(0.100000,-0.100000)"
fill="#000000" stroke="none">
<path d="M1261 2126 c-16 -20 -49 -118 -77 -230 -14 -55 -33 -114 -44 -131
-17 -27 -18 -36 -8 -63 11 -28 10 -33 -12 -50 -22 -17 -23 -22 -11 -50 9 -21
10 -36 3 -49 -6 -11 -7 -43 -3 -80 6 -50 14 -69 47 -109 22 -27 52 -68 67 -91
25 -40 47 -55 47 -34 0 16 -82 135 -106 153 -16 13 -22 32 -27 80 -3 34 -1 70
4 79 6 11 5 28 -1 44 -8 22 -6 34 9 59 13 21 16 38 11 52 -6 15 -3 33 9 55 10
19 24 59 31 89 29 124 70 244 91 266 22 24 22 24 2 24 -11 0 -26 -6 -32 -14z"/>
<path d="M1945 2109 c-72 -14 -172 -48 -185 -64 -14 -17 -10 -57 7 -62 7 -3
13 8 15 24 3 30 16 36 133 69 71 20 223 34 274 24 58 -10 79 -35 96 -108 8
-34 37 -105 64 -159 73 -145 78 -171 51 -293 -12 -56 -25 -112 -30 -123 -7
-19 -9 -17 -9 14 -1 51 -19 99 -49 131 -32 35 -41 29 -15 -9 28 -39 43 -89 43
-138 0 -54 -24 -78 -134 -140 -45 -26 -107 -68 -137 -94 -31 -26 -92 -71 -137
-101 -79 -53 -96 -70 -69 -70 13 0 112 69 220 154 38 29 100 71 139 92 39 22
84 51 101 67 16 15 30 27 32 27 2 0 -1 -17 -6 -37 -5 -21 -14 -157 -19 -301
-6 -145 -12 -267 -14 -271 -3 -4 -8 -34 -11 -66 -11 -95 -21 -144 -46 -235
-19 -70 -23 -109 -23 -220 0 -120 2 -140 22 -180 l22 -45 -7 50 c-5 28 -8 111
-8 185 1 113 5 151 27 235 17 62 29 141 33 210 3 61 10 151 15 200 5 50 11
146 15 214 7 161 18 235 56 382 44 171 40 214 -34 361 -31 62 -61 136 -67 165
-14 66 -38 96 -88 111 -45 14 -204 14 -277 1z"/>
<path d="M148 1957 c-63 -38 -98 -101 -98 -177 0 -43 37 -90 70 -90 28 0 25
17 -5 24 -33 9 -48 41 -42 93 6 56 41 107 94 135 47 25 62 19 90 -36 17 -33
16 -56 -12 -311 -16 -148 -18 -480 -2 -515 4 -11 -7 -21 -43 -38 -28 -13 -50
-28 -50 -33 0 -14 16 -11 55 12 20 12 40 18 44 13 8 -9 43 -152 57 -226 10
-58 -2 -106 -29 -111 -20 -3 -21 -4 -3 -12 58 -26 72 73 31 235 -14 57 -25
107 -25 113 0 5 12 6 28 3 26 -6 26 -6 8 9 -11 8 -25 15 -32 15 -34 0 -44 270
-19 500 34 301 32 354 -10 396 -30 30 -60 30 -107 1z"/>
<path d="M1706 1888 c-5 -10 -6 -24 -3 -31 6 -15 146 -71 155 -62 11 10 -25
32 -84 51 -39 12 -54 22 -57 38 -3 19 -4 19 -11 4z"/>
<path d="M356 977 c10 -64 27 -85 89 -102 34 -10 63 -27 78 -44 43 -52 73 -64
173 -72 52 -4 97 -9 100 -12 3 -3 1 -16 -6 -29 -9 -19 -7 -18 10 5 12 15 25
27 29 27 4 0 13 -18 20 -40 13 -46 50 -75 81 -65 28 9 25 25 -4 25 -26 0 -40
13 -50 46 -6 20 -2 21 96 28 57 4 152 20 213 35 61 16 144 36 185 45 41 9 87
22 103 28 29 11 38 33 10 24 -36 -10 -140 -34 -203 -46 -36 -7 -92 -21 -125
-32 -63 -21 -282 -42 -300 -29 -5 4 -57 9 -115 10 -119 3 -156 15 -194 66 -19
24 -37 35 -66 40 -57 10 -100 48 -100 90 0 20 -6 35 -15 39 -13 4 -14 -2 -9
-37z"/>
<path d="M108 944 c-13 -12 -9 -83 6 -112 20 -37 72 -85 87 -80 8 3 1 15 -20
34 -43 38 -54 59 -61 117 -3 27 -8 45 -12 41z"/>
<path d="M2888 805 c-52 -27 -96 -79 -77 -91 7 -4 19 3 30 17 9 13 39 35 65
49 47 25 69 50 42 50 -7 -1 -34 -12 -60 -25z"/>
<path d="M2350 752 c0 -13 24 -22 58 -22 15 0 63 -12 106 -26 97 -30 166 -41
166 -26 0 7 -12 14 -27 18 -16 3 -64 17 -108 31 -89 28 -195 42 -195 25z"/>
<path d="M2022 723 c-7 -3 -54 -53 -104 -112 -50 -58 -97 -110 -105 -114 -17
-10 -7 -27 16 -27 12 0 48 41 100 110 45 61 89 114 98 117 9 4 21 -1 29 -11 7
-10 22 -16 35 -14 28 4 38 28 11 28 -11 0 -22 7 -26 15 -5 15 -29 18 -54 8z"/>
<path d="M1020 674 c0 -21 45 -97 65 -110 19 -12 31 -13 60 -5 42 11 58 7 91
-25 20 -21 64 -33 64 -19 0 3 -17 20 -37 38 -33 29 -43 32 -102 32 -70 0 -64
-4 -101 75 -7 16 -40 27 -40 14z"/>
<path d="M1366 511 c-10 -16 35 -62 57 -59 27 4 35 28 8 28 -11 0 -25 9 -31
20 -11 21 -25 26 -34 11z"/>
<path d="M1550 470 c0 -22 50 -43 91 -37 65 9 73 27 12 27 -29 0 -55 5 -58 10
-8 13 -45 13 -45 0z"/>
</g>
</svg>
