<?xml version="1.0" standalone="no"?>
<!DOCTYPE svg PUBLIC "-//W3C//DTD SVG 20010904//EN"
 "http://www.w3.org/TR/2001/REC-SVG-20010904/DTD/svg10.dtd">
<svg version="1.0" xmlns="http://www.w3.org/2000/svg"
 width="300.000000pt" height="217.000000pt" viewBox="0 0 300.000000 217.000000"
 preserveAspectRatio="xMidYMid meet">
<metadata>
Created by potrace 1.10, written by Peter Selinger 2001-2011
</metadata>
<g transform="translate(0.000000,217.000000) scale(0.100000,-0.100000)"
fill="#000000" stroke="none">
<path d="M1590 2157 c-30 -11 -35 -17 -32 -40 4 -42 -23 -83 -68 -101 -22 -9
-48 -16 -58 -16 -9 0 -32 -16 -51 -35 -40 -41 -58 -44 -67 -10 -11 44 -30 50
-69 24 -36 -25 -44 -43 -24 -55 7 -4 20 4 31 17 14 17 21 20 25 11 3 -7 15
-25 27 -39 20 -23 25 -24 47 -13 13 7 38 25 56 41 17 15 44 30 60 34 15 3 35
11 43 18 26 21 80 95 80 110 0 20 43 35 126 45 79 9 94 7 94 -14 0 -8 4 -14 9
-14 9 0 21 24 21 41 0 13 -209 10 -250 -4z"/>
<path d="M2729 2067 c-58 -56 -121 -123 -139 -149 -18 -26 -37 -45 -43 -41 -5
3 -18 -5 -29 -18 -14 -17 -21 -20 -25 -11 -3 7 -16 26 -30 43 -29 33 -68 37
-87 7 -13 -22 0 -35 22 -22 24 15 40 7 59 -29 11 -22 12 -32 4 -35 -18 -6 -12
-22 9 -22 10 0 24 -9 30 -20 16 -30 27 -25 51 23 44 87 105 164 213 268 80 78
105 108 91 108 -12 0 -63 -41 -126 -102z"/>
<path d="M535 2055 c-37 -17 -77 -19 -92 -4 -8 8 -15 4 -26 -18 -35 -67 -41
-200 -9 -211 9 -3 12 14 12 61 0 35 3 79 6 96 6 27 11 31 38 31 40 1 128 32
134 48 5 16 -25 14 -63 -3z"/>
<path d="M813 1739 c-11 -11 0 -97 18 -141 6 -15 20 -30 31 -34 18 -5 19 -12
13 -72 -4 -37 -11 -86 -16 -110 -9 -43 -6 -62 11 -62 14 0 21 32 31 142 5 59
16 135 24 170 18 78 18 78 0 78 -14 0 -35 -56 -35 -97 0 -13 -6 -23 -14 -23
-18 0 -36 52 -36 106 0 45 -10 60 -27 43z"/>
<path d="M226 1665 c-7 -60 -33 -135 -47 -135 -5 0 -9 6 -9 13 0 24 -47 59
-69 52 -18 -5 -21 -14 -21 -55 0 -53 14 -100 29 -100 6 0 8 26 5 68 l-6 67 21
-25 c11 -14 21 -28 21 -32 0 -14 42 -19 56 -7 22 18 44 76 44 115 0 27 4 34
20 34 20 0 20 0 -2 30 -12 17 -25 30 -29 30 -3 0 -9 -25 -13 -55z"/>
<path d="M1572 1567 c-26 -27 -52 -88 -52 -120 0 -13 16 -42 35 -64 39 -46 42
-58 18 -71 -17 -10 -12 -42 6 -42 11 0 41 51 41 69 0 5 -14 25 -30 43 -17 18
-33 43 -37 56 -6 27 21 93 49 119 16 15 21 15 28 3 11 -18 25 -6 17 15 -9 22
-50 18 -75 -8z"/>
<path d="M981 1546 c-26 -28 -35 -91 -12 -91 9 0 15 11 15 27 1 16 9 35 17 44
15 14 17 11 22 -37 8 -68 36 -99 89 -99 53 0 78 15 78 47 l0 26 -23 -21 c-27
-26 -79 -29 -97 -7 -7 8 -15 41 -19 73 -5 47 -9 57 -26 60 -12 2 -31 -8 -44
-22z"/>
<path d="M1306 1519 c-14 -11 -26 -16 -26 -10 0 6 -9 11 -20 11 -18 0 -20 -7
-20 -65 0 -77 19 -88 40 -24 14 41 64 94 81 83 5 -3 19 -24 31 -47 25 -50 56
-80 76 -72 7 3 16 5 18 5 2 0 4 4 4 9 0 5 -10 11 -22 13 -15 2 -30 18 -45 46
-12 24 -27 50 -33 58 -18 20 -53 17 -84 -7z"/>
<path d="M1738 1479 c-21 -22 -37 -46 -35 -52 7 -23 26 -17 42 13 14 27 48 50
76 50 5 0 6 -31 3 -73 -6 -60 -4 -78 11 -100 33 -51 120 -54 171 -6 l23 22 12
-29 c6 -16 16 -63 21 -104 6 -41 14 -79 18 -83 3 -4 18 2 32 13 43 33 54 26
62 -36 8 -68 21 -94 46 -94 24 0 25 8 5 30 -9 9 -19 43 -23 75 -8 69 -26 85
-71 68 l-30 -11 -11 57 c-6 31 -19 79 -30 106 -11 28 -20 56 -20 62 0 20 -41
40 -93 47 -42 5 -48 4 -45 -11 2 -12 16 -20 41 -24 21 -3 46 -14 55 -23 16
-16 15 -19 -11 -42 -34 -29 -97 -33 -122 -7 -14 14 -16 28 -10 90 8 85 -1 103
-48 103 -22 0 -40 -11 -69 -41z"/>
<path d="M140 1420 c0 -11 4 -20 9 -20 13 0 32 26 24 33 -13 14 -33 6 -33 -13z"/>
<path d="M2371 1402 c-39 -37 -58 -89 -28 -79 6 2 12 9 12 16 0 19 77 72 100
69 17 -3 20 -9 16 -48 -9 -110 -8 -114 22 -124 22 -8 35 -7 59 7 23 13 34 15
44 6 17 -14 48 7 85 56 l26 35 13 -31 c12 -28 16 -30 54 -27 23 3 47 6 55 9
10 3 18 -9 26 -34 13 -46 28 -57 70 -50 l32 5 -3 -53 c-2 -30 -5 -63 -7 -74
-1 -12 4 -20 13 -20 12 0 16 16 18 75 1 41 5 82 9 90 3 8 7 38 9 65 3 46 2 48
-11 31 -8 -11 -15 -28 -15 -37 0 -38 -12 -49 -51 -49 -36 0 -39 2 -39 28 0 47
-12 56 -54 42 -58 -19 -85 -7 -92 41 -4 22 -10 38 -14 37 -4 -2 -26 -27 -49
-55 -44 -57 -68 -70 -49 -28 16 36 -5 57 -23 24 -16 -32 -47 -58 -76 -65 -35
-9 -38 -1 -24 62 12 52 11 59 -6 83 -32 42 -73 40 -122 -7z"/>
<path d="M921 1080 l62 -70 -5 -67 c-5 -66 -31 -137 -60 -160 -24 -21 -41 -18
-47 6 -10 37 -24 35 -49 -9 -25 -44 -64 -75 -85 -67 -8 3 -27 27 -42 54 -43
74 -74 103 -111 103 -21 0 -37 -7 -47 -22 l-16 -23 0 28 c-1 16 -12 39 -26 53
-28 28 -54 26 -91 -8 -22 -19 -22 -19 -61 1 -64 32 -70 45 -30 70 19 12 51 21
73 21 22 0 45 4 53 9 22 14 3 31 -35 31 -19 0 -34 5 -34 10 0 6 -4 10 -10 10
-5 0 -10 -6 -10 -14 0 -7 -22 -27 -50 -44 -75 -47 -67 -65 58 -126 49 -25 72
-42 72 -54 0 -27 -54 -106 -94 -138 -40 -32 -45 -44 -17 -44 21 0 101 82 125
128 21 41 20 65 -4 87 -26 23 -25 34 3 44 37 15 48 -12 45 -109 -3 -74 -1 -85
15 -88 14 -3 17 4 17 40 0 33 7 52 29 78 25 31 31 33 53 23 14 -6 39 -36 56
-66 42 -75 74 -99 112 -85 17 5 30 13 30 16 0 4 12 20 26 36 24 28 25 28 45
10 18 -17 23 -17 47 -4 35 20 63 71 83 150 l17 65 23 -50 c18 -40 23 -72 27
-165 3 -79 9 -122 19 -139 21 -32 41 -13 25 24 -7 14 -12 61 -12 103 0 100
-17 164 -62 232 -20 30 -39 66 -43 80 -15 50 -79 110 -118 110 -14 0 -2 -18
44 -70z"/>
<path d="M1703 973 c-34 -3 -43 -8 -43 -23 0 -22 17 -35 22 -18 3 9 27 13 75
13 115 0 126 -20 101 -193 -13 -96 -1 -221 33 -342 11 -41 23 -99 26 -127 l5
-53 -53 0 c-65 0 -139 -32 -139 -61 0 -24 14 -24 48 0 30 21 107 34 136 22 12
-5 20 -19 22 -44 6 -68 41 -104 115 -117 31 -6 53 -2 97 16 31 12 58 28 60 33
5 16 -43 13 -85 -4 -46 -20 -112 -12 -135 17 -25 28 -24 84 2 98 21 11 45 48
36 57 -2 3 -18 -4 -34 -16 -42 -30 -51 -27 -45 17 3 23 -5 73 -20 132 -34 129
-51 255 -43 326 19 178 19 190 1 218 -10 15 -25 31 -34 35 -22 12 -97 19 -148
14z"/>
<path d="M1695 810 c3 -14 8 -43 13 -65 12 -59 6 -71 -51 -99 -62 -32 -97 -34
-97 -7 0 34 -20 34 -61 2 l-39 -32 0 71 c0 61 -3 74 -23 94 -28 28 -60 25
-103 -9 -22 -18 -26 -26 -17 -35 8 -9 18 -7 41 10 16 12 38 20 48 18 17 -3 19
-14 22 -88 4 -107 13 -119 60 -80 33 27 37 28 53 14 34 -31 154 3 186 52 19
29 11 93 -18 144 -15 28 -18 30 -14 10z"/>
<path d="M2406 624 c-3 -9 -6 -24 -6 -33 0 -10 -11 -31 -25 -47 -14 -16 -25
-37 -25 -46 0 -42 -82 -77 -108 -45 -5 6 -13 31 -17 53 -4 27 -17 52 -36 70
-28 27 -36 29 -99 28 -51 -1 -78 -7 -103 -23 -35 -21 -57 -57 -50 -78 8 -21
21 -15 31 16 19 55 155 78 204 34 10 -9 20 -32 24 -52 13 -77 59 -112 117 -87
39 16 57 37 61 70 1 14 15 37 29 52 15 15 27 37 27 50 0 19 5 24 25 24 28 0
85 -26 85 -38 0 -4 -9 -36 -20 -70 -25 -81 -25 -97 2 -122 28 -26 58 -25 92 1
15 11 38 24 51 27 34 10 35 26 2 30 -19 2 -40 -5 -63 -23 -24 -18 -41 -24 -55
-20 -23 8 -23 31 1 116 17 58 8 90 -29 112 -37 22 -107 23 -115 1z"/>
<path d="M2795 430 c-3 -6 1 -31 11 -55 16 -43 16 -47 -1 -85 -10 -21 -15 -48
-12 -59 3 -14 -1 -21 -20 -25 -37 -10 -17 -26 33 -26 48 0 55 11 27 42 -13 15
-14 23 -5 44 28 60 -3 213 -33 164z"/>
<path d="M583 379 c-3 -11 -11 -18 -19 -15 -19 7 -46 -41 -49 -88 -1 -23 -8
-64 -14 -93 -23 -96 16 -117 116 -63 30 17 60 30 68 30 7 0 37 11 67 25 29 14
67 25 84 25 27 0 37 -7 64 -50 18 -28 45 -57 61 -65 61 -32 186 -9 232 43 31
35 10 46 -29 17 -25 -19 -55 -30 -106 -37 -38 -5 -76 -7 -84 -4 -7 3 -25 23
-39 46 -14 22 -35 50 -45 60 -28 28 -89 26 -150 -5 -27 -14 -55 -25 -62 -25
-8 0 -44 -16 -80 -35 -37 -20 -69 -32 -71 -27 -5 8 14 108 32 169 5 18 22 43
37 56 18 16 25 30 21 40 -9 23 -28 21 -34 -4z"/>
<path d="M1330 337 c0 -21 22 -38 35 -27 16 13 59 -21 83 -63 13 -25 17 -55
15 -139 -1 -82 2 -108 12 -108 13 0 25 63 25 136 0 101 -74 214 -140 214 -18
0 -30 -5 -30 -13z"/>
<path d="M2515 219 c-76 -38 -114 -74 -97 -91 9 -9 16 -7 32 10 12 12 43 33
70 47 l49 25 38 -22 c21 -12 49 -32 61 -45 13 -13 29 -22 35 -20 25 8 16 28
-25 56 -24 16 -55 39 -70 50 -14 12 -28 21 -30 21 -1 -1 -30 -14 -63 -31z"/>
</g>
</svg>
