<?xml version="1.0" standalone="no"?>
<!DOCTYPE svg PUBLIC "-//W3C//DTD SVG 20010904//EN"
 "http://www.w3.org/TR/2001/REC-SVG-20010904/DTD/svg10.dtd">
<svg version="1.0" xmlns="http://www.w3.org/2000/svg"
 width="300.000000pt" height="212.000000pt" viewBox="0 0 300.000000 212.000000"
 preserveAspectRatio="xMidYMid meet">
<metadata>
Created by potrace 1.10, written by Peter Selinger 2001-2011
</metadata>
<g transform="translate(0.000000,212.000000) scale(0.100000,-0.100000)"
fill="#000000" stroke="none">
<path d="M1331 2055 c-30 -35 -73 -110 -84 -150 -3 -11 -13 -46 -22 -77 -9
-32 -20 -58 -24 -58 -5 0 -15 24 -23 53 -19 69 -45 72 -65 7 -8 -25 -17 -52
-20 -60 -3 -11 -8 -8 -19 13 -21 39 -42 34 -49 -10 -15 -87 -24 -93 -55 -33
-22 43 -29 47 -48 28 -16 -16 -15 -39 1 -33 6 2 21 -10 32 -28 28 -44 59 -47
79 -8 9 16 16 38 16 47 0 16 2 15 21 -2 21 -19 21 -18 40 5 10 13 19 31 19 42
0 34 17 28 33 -11 11 -29 21 -40 36 -40 24 0 42 30 66 115 9 33 37 98 61 144
24 46 43 86 41 88 -3 2 -18 -12 -36 -32z"/>
<path d="M2539 2012 c-36 -32 -33 -47 11 -57 27 -6 29 -10 24 -33 -18 -74 -34
-89 -55 -51 -14 27 -27 14 -31 -31 -4 -50 -22 -43 -28 10 -3 31 -10 45 -20 45
-21 0 -17 -81 6 -106 24 -27 41 -24 63 11 10 16 21 27 24 24 4 -4 17 1 31 9
18 12 26 30 33 69 l8 53 50 0 49 0 26 -89 c14 -49 30 -91 36 -93 13 -4 49 85
39 95 -4 4 -10 2 -12 -4 -2 -6 -10 -19 -17 -29 -12 -16 -15 -11 -26 49 -16 84
-43 111 -103 100 -36 -6 -39 -5 -33 14 5 15 1 24 -13 31 -27 15 -26 15 -62
-17z m59 -14 c-3 -7 -15 -15 -28 -16 -21 -3 -22 -2 -11 12 16 19 44 21 39 4z"/>
<path d="M1566 1951 c-8 -12 27 -93 48 -110 9 -8 26 -11 40 -7 14 3 28 2 31
-4 12 -20 44 -10 61 19 21 35 29 33 38 -10 11 -56 48 -78 76 -44 17 21 30 19
30 -4 0 -20 24 -51 39 -51 5 0 41 34 81 75 40 41 76 72 80 70 4 -3 17 -31 30
-64 12 -33 31 -68 43 -78 20 -17 20 -17 14 2 -16 58 -51 142 -64 158 -27 29
-44 20 -114 -55 -37 -40 -71 -69 -76 -65 -4 5 -10 32 -13 60 -6 63 -29 71 -45
15 -17 -60 -32 -68 -50 -25 -8 20 -15 43 -15 50 0 20 -27 40 -40 32 -7 -4 -20
-21 -30 -37 l-18 -30 -17 31 c-19 38 -38 36 -45 -4 -4 -24 -7 -26 -17 -13 -7
8 -16 32 -21 54 -8 38 -33 57 -46 35z"/>
<path d="M2795 1926 c-28 -22 -28 -24 -8 -30 11 -4 40 -2 64 3 66 16 69 14 69
-22 0 -22 8 -41 23 -55 27 -25 57 -29 57 -7 0 8 -9 15 -19 15 -25 0 -34 15
-33 54 1 45 -14 58 -59 51 -22 -4 -40 -2 -44 4 -9 16 -16 14 -50 -13z"/>
<path d="M132 1717 c-12 -13 -22 -26 -22 -30 0 -13 27 -7 40 8 22 26 37 16 49
-29 18 -71 15 -144 -7 -150 -44 -14 -65 -118 -35 -175 10 -19 23 -36 30 -39
23 -7 45 47 52 124 l6 75 65 -42 c35 -23 82 -48 104 -55 57 -20 146 -17 211 7
42 16 68 19 101 14 28 -4 44 -2 44 4 0 6 -10 11 -22 11 -13 1 -36 7 -53 14
-25 10 -35 10 -65 -5 -106 -52 -186 -46 -289 21 -32 21 -68 41 -80 45 -17 5
-21 14 -21 50 0 72 -19 143 -43 160 -29 20 -40 19 -65 -8z m77 -296 c-9 -79
-17 -101 -30 -80 -14 22 -10 98 6 130 24 45 32 28 24 -50z"/>
<path d="M2898 1720 c-19 -12 -43 -75 -33 -90 12 -19 25 -10 25 19 0 29 21 56
39 49 6 -2 0 -26 -14 -56 -34 -73 -32 -105 10 -164 28 -39 33 -52 25 -68 -16
-30 -12 -82 10 -118 11 -18 20 -46 20 -62 0 -16 5 -32 10 -35 18 -11 11 74
-10 115 -16 30 -18 45 -10 65 16 43 12 63 -25 116 -19 28 -35 56 -35 63 0 6
11 35 25 64 28 60 31 82 13 100 -14 14 -27 15 -50 2z"/>
<path d="M793 1708 c-6 -7 -16 -37 -23 -65 -6 -29 -14 -53 -17 -53 -2 0 -13
20 -24 45 -31 70 -60 55 -39 -20 10 -36 17 -44 43 -49 37 -8 39 -6 61 68 l18
59 24 -27 c21 -22 54 -36 54 -22 0 8 -69 76 -78 76 -5 0 -14 -6 -19 -12z"/>
<path d="M2490 1653 c-7 -16 -15 -56 -18 -90 -3 -42 -9 -63 -18 -63 -25 0 -46
13 -54 36 -15 37 -140 115 -140 86 0 -13 43 -49 68 -57 13 -4 27 -17 32 -30
12 -31 50 -56 98 -62 l38 -5 2 77 c1 79 14 114 32 85 5 -8 19 -43 31 -78 23
-69 61 -122 88 -122 10 0 26 9 36 20 10 11 24 20 32 20 19 0 13 44 -7 48 -9 1
-23 -11 -33 -28 -33 -56 -61 -33 -98 81 -19 57 -51 109 -69 109 -4 0 -13 -12
-20 -27z"/>
<path d="M1939 1644 c-11 -13 -10 -22 9 -57 26 -50 28 -75 6 -84 -20 -8 -36
15 -29 44 8 35 -13 37 -41 4 -14 -16 -31 -28 -38 -25 -21 8 -28 -12 -10 -27
12 -10 20 -10 35 -1 16 10 24 9 48 -9 61 -45 100 8 62 82 -27 52 -22 69 22 69
44 0 99 -38 111 -75 22 -73 29 -84 59 -94 21 -8 34 -8 41 -1 13 13 -2 27 -34
32 -21 2 -27 11 -37 51 -6 27 -17 55 -24 63 -34 41 -154 59 -180 28z"/>
<path d="M1606 1573 c-3 -10 -8 -34 -11 -54 -7 -38 -50 -97 -63 -85 -4 4 -12
26 -17 49 -12 47 -45 65 -45 25 -1 -23 -1 -23 -21 5 -24 31 -44 35 -57 10 -12
-22 -5 -43 14 -43 8 0 11 7 8 18 -5 15 -4 15 9 -1 9 -11 18 -36 22 -57 8 -49
35 -63 35 -18 l0 31 24 -26 c27 -29 58 -27 81 6 14 20 14 20 24 -4 33 -85 44
-108 58 -113 26 -10 28 2 5 43 -24 42 -22 86 4 129 21 32 34 27 34 -12 0 -19
4 -46 10 -60 13 -35 54 -35 76 -1 22 34 10 44 -20 16 -21 -19 -24 -20 -30 -6
-3 9 -6 29 -6 44 0 30 -16 55 -42 64 -20 7 -34 -8 -52 -59 l-14 -39 -7 28 c-4
15 -2 47 4 72 14 55 14 55 -3 55 -8 0 -17 -8 -20 -17z"/>
<path d="M1008 1503 c-27 -14 -48 -29 -48 -34 0 -16 31 -10 67 12 26 16 37 19
46 10 9 -9 8 -16 -1 -31 -19 -32 -14 -87 14 -140 25 -48 38 -59 47 -42 3 4 -1
41 -9 82 -18 103 -17 118 7 130 18 10 36 3 126 -49 58 -34 112 -61 120 -61 27
0 9 34 -22 40 -17 4 -62 25 -100 49 -80 48 -111 58 -135 44 -11 -8 -21 -7 -35
3 -24 17 -21 18 -77 -13z"/>
<path d="M930 1369 c-9 -16 -14 -18 -26 -8 -19 15 -30 4 -39 -38 -5 -26 -3
-33 9 -33 9 0 16 7 16 15 0 8 7 15 15 15 19 0 55 36 55 55 0 22 -17 18 -30 -6z"/>
<path d="M2032 1098 c-31 -8 -33 -11 -27 -41 4 -18 9 -35 12 -40 8 -14 24 5
21 26 -2 18 4 23 37 30 79 17 101 -6 121 -128 5 -33 8 -37 14 -20 22 52 0 131
-44 160 -30 20 -88 25 -134 13z"/>
<path d="M450 911 c0 -27 15 -41 44 -41 17 0 41 -7 53 -15 28 -19 59 -88 73
-163 15 -77 35 -84 26 -9 -15 126 -45 179 -122 213 -59 26 -74 29 -74 15z"/>
<path d="M1750 772 c0 -117 -2 -131 -20 -147 -22 -20 -23 -62 -1 -57 10 2 11
-18 6 -98 -6 -72 -4 -100 4 -100 14 0 12 -11 26 148 7 68 11 82 23 77 8 -3 25
1 37 9 20 13 25 13 35 1 20 -24 38 -18 82 25 23 22 46 40 50 40 4 0 8 9 8 20
0 30 -14 25 -63 -25 -51 -50 -57 -53 -57 -26 0 31 -19 35 -47 10 l-25 -24 8
29 c6 26 5 28 -16 21 -22 -7 -22 -7 -20 96 3 128 3 129 -15 129 -13 0 -15 -21
-15 -128z"/>
<path d="M1007 848 c-48 -64 -108 -213 -132 -325 -13 -62 -21 -41 -33 83 -14
150 -38 209 -94 237 -40 20 -88 10 -88 -19 0 -16 12 -16 51 0 9 4 27 -2 42
-14 35 -28 54 -97 63 -227 13 -205 58 -177 138 89 25 84 78 173 103 173 6 0
47 -41 91 -91 65 -73 81 -97 79 -120 -1 -20 3 -29 16 -32 13 -3 17 3 17 26 0
17 6 32 15 36 8 3 15 15 15 26 0 23 -15 27 -27 5 -11 -19 -18 -14 -107 93 -88
105 -109 113 -149 60z"/>
<path d="M2972 811 c-6 -3 -32 -53 -56 -111 -48 -110 -63 -133 -69 -109 -32
111 -41 137 -53 157 -8 12 -23 22 -34 22 -39 0 -156 -54 -213 -98 -36 -27 -69
-44 -85 -44 -15 0 -36 -5 -46 -10 -25 -14 -46 13 -46 59 0 37 -24 47 -35 14
-3 -11 -12 -25 -20 -31 -13 -11 -14 -8 -9 19 8 37 -11 48 -56 33 -27 -10 -30
-9 -30 8 0 29 -43 36 -95 16 -35 -14 -48 -26 -66 -62 -17 -37 -19 -50 -11 -69
9 -19 41 -47 69 -60 1 0 -4 -25 -12 -55 -30 -112 -12 -170 43 -139 32 17 61
94 44 111 -8 8 -13 2 -18 -18 -8 -37 -31 -74 -46 -74 -15 0 -5 91 19 162 19
56 16 88 -6 74 -6 -4 -11 -14 -11 -22 0 -20 -12 -18 -38 6 -29 27 -28 71 1 97
24 22 86 47 88 35 1 -4 2 -16 3 -27 1 -15 8 -20 31 -19 17 0 38 4 47 8 15 7
16 3 11 -28 -7 -42 16 -59 46 -32 22 20 31 20 31 2 0 -26 39 -45 72 -35 17 4
33 8 37 7 22 -2 40 6 69 33 33 31 198 109 231 109 14 0 23 -20 44 -97 15 -53
32 -100 39 -105 20 -12 51 33 98 143 23 55 46 99 51 99 11 0 12 27 1 34 -4 2
-13 1 -20 -3z"/>
<path d="M273 802 c-15 -9 -72 -120 -65 -127 12 -12 32 -4 32 14 0 11 5 23 12
27 8 5 9 -5 5 -38 -7 -49 4 -68 38 -68 26 0 85 50 85 73 0 26 -24 20 -48 -13
-37 -50 -46 -39 -38 49 6 78 1 97 -21 83z"/>
<path d="M1320 801 c0 -16 42 -40 80 -47 64 -12 72 -21 65 -66 -9 -50 6 -63
48 -41 16 8 40 12 52 9 13 -3 27 -1 30 5 5 6 11 4 19 -7 7 -9 18 -14 23 -11
16 10 12 77 -4 77 -7 0 -13 -4 -13 -10 0 -5 -4 -10 -10 -10 -5 0 -10 7 -10 15
0 21 -4 19 -52 -15 -22 -16 -44 -30 -47 -30 -4 0 -5 15 -3 34 5 40 -17 59 -87
75 -24 5 -48 14 -54 20 -14 14 -37 14 -37 2z"/>
<path d="M1667 713 c-3 -4 -2 -26 2 -48 8 -53 36 -60 49 -13 9 31 4 57 -5 31
-7 -21 -20 -15 -19 8 1 22 -18 37 -27 22z"/>
<path d="M612 539 c-14 -39 -19 -66 -13 -72 10 -10 18 3 44 65 12 29 13 40 3
53 -10 14 -15 7 -34 -46z"/>
<path d="M2825 305 c3 -152 46 -189 108 -92 19 28 41 58 50 66 18 14 23 51 8
51 -14 0 -70 -68 -89 -106 -32 -68 -60 -27 -48 69 7 52 -5 107 -22 107 -5 0
-8 -43 -7 -95z"/>
<path d="M2234 302 c-10 -84 -4 -154 18 -198 22 -47 35 -39 41 25 4 33 8 63 9
68 2 4 -1 9 -7 11 -5 1 -14 -13 -20 -30 -10 -33 -10 -33 -13 17 -2 28 2 75 8
107 13 57 9 78 -14 78 -9 0 -16 -25 -22 -78z"/>
<path d="M1599 353 c-5 -40 41 -232 72 -297 21 -45 43 -66 56 -53 8 9 -6 59
-16 53 -4 -3 -13 5 -18 17 -10 22 -45 160 -61 241 -7 35 -30 62 -33 39z"/>
<path d="M920 340 c-19 -12 -13 -16 32 -23 22 -3 38 -1 40 5 3 7 15 8 32 4 39
-10 56 -58 69 -203 8 -91 14 -123 25 -123 9 0 12 13 10 48 l-3 47 65 23 c75
26 105 20 116 -25 15 -62 54 -78 105 -43 l28 21 21 -21 c24 -24 53 -26 70 -5
13 15 8 19 -23 16 -10 -2 -21 8 -26 22 -15 39 -29 41 -67 8 -45 -40 -60 -39
-74 4 -21 64 -74 80 -160 50 -58 -20 -60 -20 -60 20 0 63 -21 133 -47 159 -22
22 -35 26 -82 26 -31 0 -63 -4 -71 -10z"/>
<path d="M2020 268 c-69 -84 -84 -98 -101 -98 -12 0 -19 7 -19 20 0 24 -26 26
-66 5 -16 -8 -44 -15 -61 -15 -22 0 -33 -5 -33 -14 0 -25 37 -28 83 -8 43 19
44 19 55 1 18 -29 65 -24 98 10 46 45 104 111 104 116 0 15 -44 2 -60 -17z"/>
<path d="M2352 270 c-23 -11 -42 -23 -42 -29 0 -20 20 -21 53 -1 l35 21 12
-36 c17 -50 41 -60 88 -36 38 20 69 48 61 56 -3 2 -28 -7 -57 -20 l-53 -24 -9
25 c-6 14 -10 29 -10 34 0 24 -37 28 -78 10z"/>
<path d="M820 181 c-19 -17 -44 -29 -55 -28 -12 1 -20 -4 -20 -13 0 -27 36
-22 75 9 l38 30 6 -50 c11 -85 66 -100 115 -30 28 39 16 45 -19 9 -17 -16 -36
-28 -43 -26 -7 3 -14 29 -17 64 -4 50 -8 59 -25 61 -11 2 -36 -10 -55 -26z"/>
</g>
</svg>
