<?xml version="1.0" standalone="no"?>
<!DOCTYPE svg PUBLIC "-//W3C//DTD SVG 20010904//EN"
 "http://www.w3.org/TR/2001/REC-SVG-20010904/DTD/svg10.dtd">
<svg version="1.0" xmlns="http://www.w3.org/2000/svg"
 width="300.000000pt" height="212.000000pt" viewBox="0 0 300.000000 212.000000"
 preserveAspectRatio="xMidYMid meet">
<metadata>
Created by potrace 1.10, written by Peter Selinger 2001-2011
</metadata>
<g transform="translate(0.000000,212.000000) scale(0.100000,-0.100000)"
fill="#e5e5e5" stroke="none">
<path d="M1916 2089 c-101 -11 -165 -29 -176 -49 -16 -29 13 -106 59 -155 48
-52 53 -85 15 -110 -28 -18 -54 -14 -54 10 0 23 -24 18 -50 -10 -28 -30 -40
-32 -40 -5 0 23 -28 27 -36 5 -4 -8 -10 -15 -14 -15 -17 0 -19 50 -5 91 13 37
14 45 1 57 -47 47 -183 -85 -189 -183 -3 -50 17 -43 25 9 3 26 18 61 34 81 29
39 93 87 104 80 13 -8 -2 -56 -19 -62 -24 -9 -61 -45 -61 -59 0 -7 8 -15 19
-19 13 -4 17 -12 13 -30 -7 -38 14 -30 31 13 9 20 16 30 16 21 1 -22 25 -31
40 -16 9 9 15 8 22 -5 14 -25 32 -22 58 8 l23 26 14 -21 c22 -31 44 -26 87 19
46 49 44 59 -24 137 -40 46 -49 63 -49 94 l0 37 78 18 c148 34 202 18 216 -64
3 -24 21 -55 51 -89 32 -37 45 -60 45 -82 0 -41 25 -53 103 -49 80 4 77 21 -5
28 -62 5 -63 5 -66 37 -2 20 -20 50 -53 88 -28 32 -49 66 -49 79 0 31 -33 72
-67 83 -16 5 -59 6 -97 2z m-350 -295 c-3 -9 -6 -18 -6 -20 0 -2 -7 -4 -15 -4
-18 0 -19 12 -3 28 17 17 31 15 24 -4z"/>
<path d="M255 1962 c-42 -26 -58 -61 -52 -113 10 -83 36 -224 48 -258 18 -50
119 -110 119 -71 0 6 -16 16 -35 24 -40 17 -75 68 -75 111 0 17 -7 61 -15 100
-10 45 -11 71 -5 73 5 2 10 8 10 13 0 5 14 28 30 51 30 40 36 78 15 85 -5 1
-23 -5 -40 -15z m25 -18 c0 -11 -45 -84 -52 -84 -14 0 -8 24 12 58 17 28 40
43 40 26z"/>
<path d="M2503 1900 c-53 -30 -99 -82 -88 -100 10 -17 25 -11 25 10 0 12 19
32 52 55 73 48 80 46 55 -20 -18 -50 -19 -61 -8 -113 7 -31 17 -67 22 -80 5
-13 9 -36 9 -53 0 -25 6 -33 35 -45 19 -7 43 -14 53 -14 10 0 27 -6 37 -14 18
-13 18 -15 2 -67 -10 -29 -14 -56 -9 -61 10 -10 55 95 50 119 -4 20 -37 38
-93 50 -32 6 -41 13 -43 33 -2 14 -9 39 -17 55 -7 17 -17 57 -20 91 -6 50 -4
69 14 109 11 26 21 54 21 61 0 23 -41 16 -97 -16z"/>
<path d="M926 1789 c-49 -12 -136 -60 -136 -76 0 -20 16 -16 62 17 31 21 63
33 116 41 95 14 104 8 95 -71 -3 -32 -3 -70 1 -84 9 -37 61 -66 116 -65 l45 1
-53 16 c-79 25 -93 48 -85 135 5 61 4 72 -12 83 -21 16 -90 17 -149 3z"/>
<path d="M127 1628 c-71 -97 -81 -134 -45 -168 l22 -20 -24 -75 c-21 -66 -22
-78 -10 -102 l14 -28 7 50 c4 28 14 75 23 105 16 53 16 56 -4 72 -11 9 -20 25
-20 37 0 26 35 93 60 116 21 19 27 45 11 45 -6 0 -21 -15 -34 -32z"/>
<path d="M1641 1541 c-14 -4 -26 -12 -29 -19 -3 -9 12 -10 57 -6 34 4 61 5 61
3 0 -3 -9 -22 -20 -44 -11 -22 -20 -46 -20 -55 0 -21 39 -82 62 -99 15 -10 19
-21 14 -43 -4 -21 -2 -28 7 -26 26 9 19 56 -17 103 -42 55 -44 76 -11 129 18
30 21 43 13 53 -11 14 -75 16 -117 4z"/>
<path d="M623 1446 c-67 -32 -83 -59 -52 -92 12 -13 28 -24 36 -24 27 0 11
-18 -39 -45 -124 -66 -184 -123 -159 -148 10 -9 15 -8 23 7 6 11 22 30 36 43
39 36 194 123 220 123 15 0 22 5 19 13 -2 7 -21 12 -45 12 -30 0 -48 6 -64 23
l-23 23 29 23 c15 13 46 29 68 35 34 11 43 10 73 -9 19 -12 44 -33 55 -47 22
-28 36 -26 26 4 -10 28 -91 83 -123 83 -15 0 -51 -11 -80 -24z"/>
<path d="M96 1168 c-3 -35 -9 -114 -12 -176 -5 -73 -10 -110 -17 -103 -15 15
-67 -8 -67 -29 0 -18 2 -18 36 -4 20 8 39 13 42 10 3 -3 6 -47 6 -98 1 -51 5
-99 9 -106 10 -14 30 -6 21 9 -10 17 -6 382 6 453 10 66 7 106 -9 106 -5 0
-11 -28 -15 -62z"/>
<path d="M2502 1197 c-26 -28 -35 -92 -12 -92 9 0 16 11 18 30 2 17 11 38 20
48 25 28 0 42 -26 14z"/>
<path d="M2890 1166 c-9 -12 -9 -31 0 -90 14 -87 9 -123 -25 -188 -30 -57 -33
-121 -8 -209 14 -52 15 -65 3 -97 -29 -81 -87 -142 -135 -142 -13 0 -16 8 -13
32 l3 31 -55 4 c-30 2 -59 4 -65 4 -5 1 -26 -2 -46 -5 -31 -7 -40 -3 -78 28
-29 24 -53 36 -73 36 -23 0 -40 10 -68 40 -20 22 -41 40 -47 40 -20 0 -55 48
-51 71 2 13 22 38 48 57 39 30 63 62 46 62 -21 0 -99 -61 -112 -88 -14 -29
-14 -35 0 -64 12 -23 13 -34 5 -44 -6 -8 -15 -12 -19 -9 -10 6 -37 121 -46
193 l-6 52 37 0 c21 0 34 4 30 10 -3 6 -19 10 -36 10 -33 0 -38 19 -14 60 16
28 19 60 7 60 -18 0 -47 -85 -46 -135 1 -60 50 -264 69 -284 11 -11 16 -9 31
15 10 16 20 31 22 34 2 3 23 -17 46 -43 32 -37 52 -50 85 -58 25 -5 60 -24 79
-40 31 -27 41 -30 91 -28 103 5 144 0 138 -15 -3 -8 0 -22 7 -31 35 -48 143
30 181 129 17 43 17 54 5 105 -26 112 -25 158 7 220 28 56 32 95 20 236 -2 26
2 30 25 33 15 2 36 -2 48 -8 16 -8 20 -8 20 3 0 27 -89 37 -110 13z"/>
<path d="M970 1142 c0 -10 33 -42 44 -42 3 0 47 -32 96 -72 l90 -72 -31 -32
c-17 -18 -44 -38 -60 -44 -26 -11 -34 -9 -80 20 -53 35 -115 107 -125 147 -6
24 -24 32 -24 11 1 -27 39 -97 72 -130 19 -19 56 -47 82 -62 43 -25 50 -27 79
-15 17 7 49 31 70 52 l39 39 35 -34 c40 -38 105 -135 153 -226 31 -59 88 -122
110 -122 6 0 -10 25 -35 55 -24 31 -54 77 -66 103 -31 67 -74 129 -132 189
-28 29 -49 54 -46 56 30 26 88 57 105 57 12 0 24 7 28 15 10 28 -47 17 -101
-20 -29 -19 -55 -35 -58 -35 -3 0 -43 30 -88 66 -81 66 -157 112 -157 96z"/>
<path d="M1895 1107 c-16 -6 -27 -19 -31 -35 -3 -15 -10 -42 -15 -61 -5 -19
-6 -37 -4 -40 11 -10 26 17 33 60 8 48 34 69 85 69 15 0 27 4 27 8 0 11 -61
10 -95 -1z"/>
<path d="M2977 1094 c-42 -56 -40 -137 3 -194 24 -31 27 -9 5 43 -19 46 -19
80 1 118 21 41 15 65 -9 33z"/>
<path d="M236 972 c-20 -45 -18 -123 3 -130 11 -4 13 2 8 25 -3 17 1 52 9 78
18 60 4 80 -20 27z"/>
<path d="M1780 869 c-11 -25 -11 -47 0 -118 7 -47 15 -103 17 -123 3 -21 9
-38 14 -38 13 0 11 46 -7 130 -10 46 -13 95 -10 128 3 28 4 52 2 52 -2 0 -9
-14 -16 -31z"/>
<path d="M285 690 c-32 -33 -36 -40 -19 -40 10 0 25 9 32 21 7 12 15 19 18 16
13 -13 34 -128 33 -181 0 -33 2 -79 5 -101 18 -146 18 -166 6 -195 -15 -37 -6
-50 18 -27 19 19 22 105 7 207 -4 30 -7 84 -6 120 0 36 -6 85 -13 110 -8 25
-16 58 -18 74 -4 42 -19 41 -63 -4z"/>
<path d="M121 576 c-14 -17 -37 -123 -29 -131 10 -10 201 50 206 64 4 11 -1
12 -19 7 -13 -3 -49 -13 -79 -21 -30 -8 -62 -18 -72 -21 -15 -4 -16 0 -11 33
3 21 10 46 15 56 12 23 5 32 -11 13z"/>
<path d="M560 561 c-53 -5 -60 -8 -41 -15 13 -4 91 -5 173 -1 l149 7 41 -43
41 -43 -34 -9 c-19 -4 -54 -12 -78 -18 -49 -10 -79 -32 -92 -66 -10 -26 -53
-46 -132 -63 -61 -12 -91 -35 -62 -46 9 -4 20 -3 24 3 8 13 58 30 104 37 34 4
37 3 32 -14 -11 -36 6 -44 30 -14 l22 28 28 -22 c15 -12 31 -22 36 -22 4 0 43
-24 86 -54 43 -29 89 -57 103 -61 14 -4 63 -23 110 -43 l85 -35 105 13 c139
17 211 36 233 62 22 26 14 37 -11 15 -24 -22 -133 -46 -240 -53 -84 -6 -91 -5
-187 32 -55 21 -139 64 -187 96 -49 32 -92 58 -97 58 -5 0 -14 7 -21 15 -10
12 -5 23 27 64 21 28 41 49 45 48 4 -1 17 -17 30 -36 33 -48 49 -57 89 -44
l34 10 -40 8 c-31 5 -46 16 -67 46 -26 37 -27 39 -8 39 48 0 97 -35 210 -152
66 -67 123 -119 126 -115 4 4 -18 34 -49 66 -32 33 -57 62 -57 65 0 4 11 4 25
0 31 -8 95 3 95 16 0 6 -22 10 -48 10 -52 0 -101 21 -153 65 -18 15 -43 31
-55 35 -13 5 -41 34 -63 64 -23 31 -50 60 -60 66 -20 10 -187 11 -301 1z m228
-181 c-33 -40 -52 -49 -63 -30 -9 15 50 70 75 70 20 0 19 -3 -12 -40z"/>
<path d="M1528 364 c-4 -3 -46 -9 -95 -12 -48 -4 -88 -11 -88 -17 0 -15 83
-18 150 -5 74 15 209 14 238 -1 25 -14 115 -38 179 -48 25 -4 54 -13 62 -20
20 -17 275 -25 313 -10 48 18 13 23 -133 21 -133 -2 -148 0 -171 18 -15 11
-41 20 -61 20 -34 0 -108 19 -185 46 -36 14 -198 20 -209 8z"/>
<path d="M1230 274 c0 -9 45 -25 159 -58 130 -38 170 -42 79 -8 -60 22 -238
72 -238 66z"/>
</g>
</svg>
