<?xml version="1.0" standalone="no"?>
<!DOCTYPE svg PUBLIC "-//W3C//DTD SVG 20010904//EN"
 "http://www.w3.org/TR/2001/REC-SVG-20010904/DTD/svg10.dtd">
<svg version="1.0" xmlns="http://www.w3.org/2000/svg"
 width="300.000000pt" height="212.000000pt" viewBox="0 0 300.000000 212.000000"
 preserveAspectRatio="xMidYMid meet">
<metadata>
Created by potrace 1.10, written by Peter Selinger 2001-2011
</metadata>
<g transform="translate(0.000000,212.000000) scale(0.100000,-0.100000)"
fill="#e5e5e5" stroke="none">
<path d="M1975 2081 c-63 -16 -94 -39 -101 -77 -4 -21 -2 -40 4 -46 12 -12 18
-3 24 36 5 31 52 59 100 60 l43 1 3 -54 c2 -35 -1 -57 -9 -62 -7 -4 -13 -27
-14 -51 -1 -23 -6 -66 -10 -93 -6 -40 -4 -53 8 -64 12 -10 21 -10 38 -1 19 11
21 17 14 68 -9 77 -9 97 0 174 7 63 6 67 -18 92 -27 27 -33 28 -82 17z m81
-317 c-10 -26 -26 -4 -20 24 4 15 10 32 13 37 8 13 14 -42 7 -61z"/>
<path d="M2610 2020 c0 -6 5 -19 12 -29 9 -15 9 -37 0 -97 -7 -43 -14 -79 -16
-82 -3 -2 -14 -1 -26 3 -17 5 -21 13 -17 31 5 26 -2 31 -20 13 -9 -9 -9 -19 2
-39 23 -45 107 -67 91 -24 -3 8 1 48 10 88 13 66 13 78 0 110 -14 33 -36 49
-36 26z"/>
<path d="M72 1988 c-58 -19 -84 -40 -69 -54 3 -4 30 6 61 20 102 48 174 29
161 -43 -8 -48 -54 -114 -84 -121 -34 -8 -39 -30 -8 -30 32 0 81 40 97 80 7
16 16 27 21 25 4 -3 20 7 34 21 23 23 29 24 40 13 12 -12 11 -31 -2 -122 -12
-78 -14 -110 -6 -118 20 -20 33 1 33 55 0 29 5 78 11 109 10 48 9 60 -5 82
-19 29 -60 33 -88 8 -17 -15 -18 -14 -18 21 0 30 -5 40 -32 56 -41 25 -67 25
-146 -2z"/>
<path d="M690 1976 c-49 -17 -90 -38 -90 -46 0 -4 6 -13 14 -19 12 -10 17 -8
25 7 11 21 85 46 122 40 22 -3 24 -7 23 -58 -1 -30 -3 -82 -5 -115 -3 -51 -2
-60 14 -63 16 -3 18 1 13 25 -3 15 0 57 7 93 27 125 -16 172 -123 136z"/>
<path d="M1104 1981 c-43 -11 -56 -21 -50 -38 4 -9 -6 -30 -24 -49 -35 -40
-38 -59 -11 -74 32 -17 49 -12 93 28 l41 37 -5 -30 c-8 -39 7 -65 36 -65 51 0
216 82 216 107 0 7 -18 22 -39 33 -22 10 -41 25 -44 32 -4 10 -7 10 -18 1 -17
-17 0 -67 25 -71 11 -3 16 0 12 7 -4 6 -3 11 3 11 44 0 -15 -59 -79 -78 -87
-25 -81 -30 -79 58 2 104 -1 109 -77 91z m36 -50 c0 -12 -87 -91 -100 -91 -26
0 2 44 48 75 39 26 52 31 52 16z"/>
<path d="M1659 1980 c-21 -12 -43 -65 -35 -85 3 -9 0 -15 -9 -15 -8 0 -15 -4
-15 -9 0 -15 18 -23 25 -11 4 6 15 0 27 -15 27 -35 44 -32 19 4 -12 16 -21 34
-21 39 0 10 60 52 74 52 13 0 5 -28 -9 -34 -17 -6 -21 -36 -5 -36 14 0 50 38
50 53 0 20 -15 37 -45 53 -32 16 -35 17 -56 4z"/>
<path d="M2150 1960 c0 -11 5 -20 10 -20 6 0 10 -9 10 -20 0 -31 39 -60 82
-60 21 0 49 -7 62 -15 23 -15 27 -14 70 16 25 18 46 37 46 43 0 5 15 22 33 37
20 18 26 28 17 29 -18 0 -54 -24 -99 -67 -36 -36 -52 -40 -70 -19 -8 9 -25 12
-49 10 -55 -7 -69 6 -46 45 20 34 13 51 -16 33 -12 -7 -21 -8 -25 -2 -10 17
-25 11 -25 -10z"/>
<path d="M2767 1969 c-13 -8 -17 -18 -13 -34 4 -16 1 -25 -11 -29 -12 -5 -13
-10 -5 -18 18 -18 42 -1 42 32 0 27 3 30 30 30 17 0 30 -2 30 -5 0 -3 -14 -31
-30 -62 -21 -39 -30 -69 -28 -92 4 -50 28 -53 28 -3 0 24 11 59 30 93 35 63
35 63 14 83 -18 18 -60 20 -87 5z"/>
<path d="M1770 1920 c0 -6 11 -15 25 -20 14 -5 30 -21 37 -35 9 -21 7 -30 -16
-66 -20 -29 -25 -44 -17 -52 15 -15 47 17 62 60 13 40 -1 85 -35 108 -24 17
-56 20 -56 5z"/>
<path d="M1497 1838 c-13 -22 -15 -34 -7 -42 10 -10 20 -2 34 29 7 16 26 -17
26 -46 0 -27 24 -57 33 -42 3 4 8 28 11 53 5 31 4 41 -3 30 -11 -16 -12 -15
-29 23 -15 36 -43 34 -65 -5z"/>
<path d="M506 1829 c-29 -23 -33 -68 -7 -77 9 -3 11 1 7 15 -12 37 61 75 86
45 7 -8 13 -41 13 -71 0 -50 2 -56 21 -59 24 -3 58 36 69 81 10 40 -12 34 -32
-8 -22 -46 -32 -45 -26 3 10 78 -68 120 -131 71z"/>
<path d="M1683 1770 c-25 -38 -29 -51 -19 -59 10 -8 21 0 45 35 29 40 36 75
14 73 -4 0 -22 -22 -40 -49z"/>
<path d="M2279 1646 c-15 -32 -3 -48 16 -22 12 15 24 18 75 14 69 -5 107 -31
96 -66 -6 -18 -68 -80 -144 -144 -45 -37 -43 -74 8 -133 53 -61 53 -93 -1
-203 -38 -77 -45 -119 -18 -110 6 2 17 19 24 38 27 73 62 149 75 165 11 13 10
23 -10 65 -23 49 -23 50 -4 71 31 35 122 90 160 96 29 5 34 3 34 -15 0 -11 24
-48 53 -82 47 -55 55 -60 82 -55 32 5 65 37 65 63 0 12 -5 11 -23 -6 -13 -12
-33 -22 -45 -22 -27 0 -92 69 -108 113 -19 53 -56 49 -157 -16 -46 -30 -87
-62 -91 -72 -6 -17 -7 -17 -26 0 -36 32 -25 59 46 116 78 63 107 106 102 151
-4 43 -49 69 -133 76 -62 4 -65 4 -76 -22z"/>
<path d="M1853 1633 c-7 -2 -13 -11 -13 -18 0 -10 9 -12 35 -8 19 3 35 2 35
-2 0 -12 -72 -135 -79 -135 -4 0 -20 13 -35 29 -22 23 -27 36 -22 55 8 31 -9
35 -24 6 -13 -24 -4 -43 39 -84 17 -17 31 -40 31 -52 0 -31 39 -133 61 -163
26 -32 24 -46 -10 -70 -35 -25 -43 -53 -24 -81 18 -25 32 -18 26 13 -3 17 2
28 21 41 26 17 35 53 17 71 -15 16 -61 154 -61 183 0 15 21 61 45 102 25 41
45 79 45 85 0 28 -49 44 -87 28z"/>
<path d="M2842 1540 c-40 -24 -51 -52 -41 -99 4 -20 12 -60 18 -90 6 -29 11
-95 12 -145 0 -50 5 -116 10 -146 14 -74 15 -99 5 -139 -6 -26 -5 -32 5 -29 8
3 16 13 17 24 6 33 21 38 28 10 7 -28 -38 -190 -56 -201 -13 -8 -13 -35 1 -35
14 0 58 98 71 163 11 53 10 58 -20 125 -31 66 -33 77 -35 203 -2 131 -2 133
22 145 30 15 55 7 45 -15 -16 -36 -16 -82 0 -106 9 -13 16 -31 16 -39 0 -10 6
-13 15 -10 21 8 19 30 -6 63 -19 26 -20 32 -8 65 10 27 10 42 3 54 -13 20 -56
27 -82 13 -17 -9 -20 -5 -30 37 -6 26 -14 55 -17 64 -10 27 46 78 84 78 21 0
31 5 31 15 0 22 -48 19 -88 -5z"/>
<path d="M553 1520 c-57 -25 -123 -79 -117 -95 4 -10 46 -35 59 -35 3 0 5 7 5
15 0 8 -7 15 -15 15 -38 0 -2 39 65 69 64 29 134 28 165 -4 21 -20 25 -33 24
-82 -1 -83 -29 -175 -56 -189 -33 -16 -63 -45 -63 -61 0 -21 19 -15 45 15 29
34 36 28 25 -23 -17 -77 -23 -191 -10 -214 17 -33 74 -26 79 9 3 24 2 24 -16
7 -41 -36 -46 -24 -39 81 11 161 14 172 52 188 45 19 44 19 44 -25 0 -23 8
-48 19 -62 l18 -22 30 21 c18 13 34 18 43 12 16 -10 33 -5 87 29 46 28 59 57
21 45 -13 -4 -34 -15 -47 -25 -31 -24 -47 -24 -54 1 -7 27 -21 25 -35 -4 -6
-14 -20 -30 -32 -36 -19 -10 -20 -8 -20 39 0 57 -18 75 -58 60 -14 -5 -27 -7
-30 -5 -2 3 3 34 12 70 20 82 20 131 0 166 -36 60 -120 77 -201 40z"/>
<path d="M2702 1531 c4 -12 77 -91 83 -91 12 0 3 21 -21 49 l-26 31 26 0 c13
0 28 5 31 10 4 6 -14 10 -45 10 -29 0 -50 -4 -48 -9z"/>
<path d="M2128 1410 c-63 -39 -64 -66 -5 -103 34 -22 34 -42 2 -63 -28 -18
-33 -44 -10 -44 23 0 65 46 65 70 0 22 -41 70 -60 70 -23 0 -7 22 35 48 42 26
59 52 33 52 -7 0 -34 -14 -60 -30z"/>
<path d="M1292 1402 c-31 -9 -29 -21 7 -43 29 -17 50 -11 36 11 -4 6 7 10 26
10 36 0 36 1 -5 -94 -32 -79 -25 -93 51 -98 56 -3 57 -2 98 41 36 38 47 44 85
45 43 1 44 1 44 -34 1 -27 5 -34 18 -32 15 2 18 -8 20 -80 2 -66 6 -83 18 -83
12 0 14 12 12 65 -2 36 -8 83 -14 104 -8 33 -7 42 6 52 22 15 20 27 -3 19 -11
-3 -34 3 -54 15 -33 19 -38 20 -71 6 -19 -8 -54 -32 -78 -53 -34 -31 -52 -40
-85 -42 -24 -1 -43 2 -43 7 0 6 13 39 30 74 16 34 30 71 30 80 0 33 -64 47
-128 30z"/>
<path d="M117 1343 c-3 -4 -4 -43 -3 -87 1 -63 5 -81 18 -90 26 -16 45 6 31
36 -10 20 -6 28 30 66 46 47 34 56 -20 15 l-35 -27 4 44 c2 26 -1 45 -9 47 -6
2 -13 0 -16 -4z"/>
<path d="M1097 1303 c-4 -3 -7 -15 -7 -26 0 -14 5 -18 20 -14 15 4 32 -8 65
-45 25 -28 45 -54 45 -59 0 -17 29 -9 44 13 24 34 21 56 -3 34 -19 -17 -22
-16 -79 43 -58 60 -72 68 -85 54z"/>
<path d="M478 1265 c-21 -28 -103 -85 -124 -85 -10 0 -13 10 -12 32 2 24 -2
33 -14 36 -14 3 -18 -3 -18 -25 0 -16 6 -38 14 -48 13 -18 17 -18 57 -5 24 7
51 20 60 27 18 15 33 17 24 3 -9 -15 3 -47 21 -54 22 -8 69 27 84 63 17 42 7
63 -12 26 -19 -35 -55 -71 -64 -62 -4 3 0 28 9 54 21 65 8 85 -25 38z"/>
<path d="M236 1265 c-10 -27 -7 -80 6 -93 17 -17 45 -15 52 3 4 10 -1 15 -15
15 -18 0 -20 5 -17 42 3 42 -14 64 -26 33z"/>
<path d="M31 1203 c-13 -28 -2 -51 18 -39 13 8 15 66 3 66 -5 0 -14 -12 -21
-27z"/>
<path d="M2774 938 c8 -48 -13 -248 -26 -248 -4 0 -8 6 -8 14 0 29 -21 27 -56
-3 -45 -40 -87 -41 -126 -4 l-28 27 -28 -27 c-30 -29 -61 -34 -91 -15 -15 9
-24 7 -46 -10 -33 -26 -43 -22 -22 9 19 27 12 49 -17 49 -25 0 -86 -35 -86
-50 0 -14 33 -13 48 2 17 17 25 3 12 -22 -10 -18 -9 -25 4 -38 14 -14 19 -13
52 11 34 23 39 24 58 11 28 -19 37 -18 81 12 l38 25 21 -20 c12 -12 32 -21 44
-21 24 0 93 30 105 45 11 15 44 -33 51 -74 8 -49 69 -211 80 -211 12 0 -1 59
-29 129 -28 67 -31 101 -13 119 10 10 10 15 -1 21 -11 7 -12 22 -2 85 18 123
13 226 -11 226 -7 0 -8 -16 -4 -42z"/>
<path d="M1026 915 c-21 -7 -43 -20 -47 -27 -12 -18 -11 -78 1 -78 6 0 10 13
10 30 0 36 31 59 89 67 33 5 41 2 50 -16 10 -18 5 -43 -29 -146 -40 -125 -45
-150 -34 -179 13 -33 32 -17 27 22 -3 26 6 67 31 142 40 117 43 145 20 178
-18 26 -59 28 -118 7z"/>
<path d="M215 863 c-72 -38 -82 -72 -39 -134 l26 -37 -39 -36 c-21 -19 -41
-36 -45 -36 -9 0 -11 -30 -3 -30 3 0 25 18 47 40 47 45 68 50 68 18 0 -13 9
-36 20 -53 23 -35 26 -99 5 -135 -8 -14 -14 -37 -15 -52 0 -42 -19 -43 -56 -4
-19 20 -34 32 -34 27 0 -17 58 -71 77 -71 13 0 27 18 47 66 26 60 28 72 20
114 -10 47 -10 49 24 75 18 15 35 25 36 23 2 -1 9 -13 15 -25 16 -31 40 -29
81 7 19 16 38 29 41 30 4 0 9 -18 12 -40 5 -38 29 -86 82 -159 18 -24 25 -47
25 -77 0 -32 4 -44 15 -44 10 0 15 10 15 34 0 48 -14 81 -60 139 -35 43 -77
143 -66 154 2 3 47 7 100 10 84 5 96 8 96 24 0 30 -40 48 -149 68 -95 17 -138
31 -97 31 9 0 14 5 11 10 -8 13 -52 13 -61 -1 -13 -22 23 -39 126 -59 58 -12
116 -26 130 -32 24 -11 23 -12 -20 -19 -25 -4 -66 -8 -92 -8 -38 -1 -48 2 -48
15 0 11 -9 4 -23 -17 -25 -37 -70 -64 -93 -55 -8 3 -14 19 -14 41 0 19 -2 35
-3 35 -2 0 -23 -18 -46 -40 -47 -45 -57 -48 -66 -21 -3 10 -26 44 -50 76 -25
31 -45 63 -45 70 0 32 75 78 118 73 25 -3 27 -7 28 -48 2 -64 3 -67 14 -50 16
25 12 85 -8 103 -23 21 -68 21 -107 0z"/>
<path d="M2111 844 c-12 -15 -26 -45 -32 -68 -5 -22 -14 -52 -18 -66 l-8 -25
-30 32 -30 31 -16 -27 c-17 -30 -12 -48 8 -31 9 7 16 6 25 -5 7 -8 19 -15 26
-15 18 0 18 -12 -5 -117 -11 -48 -23 -132 -26 -185 -6 -78 -9 -96 -21 -91 -18
7 -192 -26 -200 -38 -3 -5 -24 -9 -48 -9 -102 0 -298 -51 -331 -86 -13 -14
-51 -30 -104 -43 -84 -21 -84 -21 -116 -1 -35 22 -90 27 -101 9 -10 -16 -12
-109 -2 -109 4 0 8 12 8 26 0 58 42 82 86 49 10 -8 35 -14 54 -15 57 0 183 37
201 59 23 28 169 69 272 77 45 4 109 15 141 26 38 12 81 18 120 17 l61 -3 6
115 c4 63 17 160 29 217 23 100 24 102 52 102 21 0 33 8 48 33 20 33 27 87 11
87 -16 0 -33 -30 -28 -50 3 -14 -3 -27 -21 -41 l-27 -21 -3 21 c-5 32 27 120
49 134 10 6 19 17 19 24 0 22 -28 14 -49 -13z"/>
<path d="M1838 756 c-25 -18 -22 -38 4 -34 17 2 23 -4 32 -37 14 -50 32 -43
27 10 -6 70 -26 89 -63 61z"/>
<path d="M1255 698 c-44 -11 -84 -24 -89 -29 -10 -9 19 -59 35 -59 5 0 8 12 7
26 -3 25 2 28 59 44 l61 18 28 -29 c57 -60 147 -85 191 -54 13 9 47 16 86 17
51 1 67 5 76 21 16 24 8 32 -17 18 -12 -6 -47 -11 -79 -11 -35 -1 -66 -6 -77
-15 -11 -8 -31 -15 -45 -15 -34 0 -131 56 -131 75 0 19 -7 18 -105 -7z"/>
<path d="M668 619 c-61 -31 -67 -39 -43 -59 14 -11 19 -7 16 12 -1 7 71 48 83
48 2 0 6 -10 8 -22 4 -31 35 -35 62 -9 19 18 30 21 63 15 42 -6 71 11 36 22
-10 3 -27 10 -37 16 -15 8 -22 7 -30 -4 -12 -16 -49 -38 -65 -38 -5 0 -11 10
-13 22 -4 31 -16 31 -80 -3z"/>
<path d="M2193 614 c-8 -20 13 -42 27 -28 12 12 3 44 -11 44 -5 0 -12 -7 -16
-16z"/>
<path d="M2555 541 c-9 -15 32 -112 75 -176 22 -33 40 -68 40 -77 0 -9 -13
-53 -30 -98 -34 -93 -36 -112 -14 -131 31 -25 119 38 190 136 18 26 27 29 74
29 49 1 54 -1 60 -23 6 -26 35 -50 46 -38 9 9 -21 66 -44 85 -9 6 -31 12 -49
12 -37 0 -103 -24 -103 -38 0 -17 -73 -102 -105 -122 -63 -39 -69 -21 -30 80
36 93 33 123 -20 204 -27 42 -45 80 -45 98 0 48 -28 85 -45 59z"/>
<path d="M1241 461 c-64 -22 -173 -123 -154 -142 8 -8 27 5 69 49 45 46 72 64
114 77 30 10 59 21 65 26 16 15 -37 9 -94 -10z"/>
<path d="M256 210 c-5 -34 -2 -59 8 -82 31 -68 66 -90 66 -42 0 21 -3 24 -13
15 -27 -22 -51 82 -28 118 11 18 3 41 -14 41 -7 0 -15 -20 -19 -50z"/>
<path d="M2209 221 c-26 -16 -56 -32 -68 -36 -20 -6 -28 -25 -15 -37 3 -3 31
10 62 28 l57 35 7 -26 c17 -63 54 -71 112 -23 37 30 39 31 66 15 31 -19 51
-15 86 18 30 28 31 41 2 21 -29 -20 -77 -21 -84 -1 -9 22 -17 19 -59 -21 -52
-49 -88 -45 -95 10 -3 22 -10 41 -15 43 -6 2 -31 -10 -56 -26z"/>
<path d="M430 230 c0 -6 -21 -39 -46 -72 -34 -43 -43 -63 -35 -71 6 -6 12 -9
14 -6 2 2 20 31 40 63 l36 59 25 -57 c24 -54 55 -80 40 -33 -30 94 -43 122
-57 125 -10 2 -17 -2 -17 -8z"/>
<path d="M877 234 c-10 -11 -8 -127 3 -144 15 -24 22 -5 23 64 1 62 -10 95
-26 80z"/>
<path d="M628 218 c-8 -22 16 -100 34 -112 23 -14 34 -1 17 20 -7 8 -15 34
-18 57 -6 40 -24 60 -33 35z"/>
<path d="M171 180 c-33 -46 -40 -80 -16 -80 8 0 14 3 14 8 -4 26 3 42 21 42
23 0 39 45 22 62 -7 7 -20 -3 -41 -32z"/>
</g>
</svg>
