<?xml version="1.0" standalone="no"?>
<!DOCTYPE svg PUBLIC "-//W3C//DTD SVG 20010904//EN"
 "http://www.w3.org/TR/2001/REC-SVG-20010904/DTD/svg10.dtd">
<svg version="1.0" xmlns="http://www.w3.org/2000/svg"
 width="300.000000pt" height="213.000000pt" viewBox="0 0 300.000000 213.000000"
 preserveAspectRatio="xMidYMid meet">
<metadata>
Created by potrace 1.10, written by Peter Selinger 2001-2011
</metadata>
<g transform="translate(0.000000,213.000000) scale(0.100000,-0.100000)"
fill="#000000" stroke="none">
<path d="M540 2106 c0 -14 -15 -59 -34 -100 -58 -128 -93 -284 -67 -301 18
-11 21 -3 26 61 6 77 34 173 74 251 34 68 40 113 16 113 -9 0 -15 -9 -15 -24z"/>
<path d="M833 2028 c-22 -40 -44 -84 -48 -97 -4 -13 -14 -40 -22 -59 -13 -32
-15 -33 -32 -18 -22 20 -61 21 -87 1 -44 -34 -61 -17 -66 70 -2 29 -8 41 -20
43 -15 3 -18 -4 -18 -41 0 -98 41 -141 96 -98 33 26 45 26 77 1 38 -30 52 -25
72 28 10 26 38 86 63 135 32 61 43 90 35 98 -7 7 -22 -11 -50 -63z"/>
<path d="M1970 1809 c-46 -6 -206 -9 -470 -7 -25 0 -90 -2 -145 -6 -55 -3
-106 -5 -112 -6 -7 0 -13 -4 -13 -10 0 -10 508 -9 525 2 6 3 41 3 79 -1 85 -9
246 10 246 29 0 11 -31 11 -110 -1z"/>
<path d="M2160 1808 c0 -14 72 -20 150 -14 146 13 142 24 -7 23 -79 -1 -143
-5 -143 -9z"/>
<path d="M2455 1810 c10 -16 95 -39 168 -45 67 -6 83 -11 112 -36 31 -27 55
-37 55 -22 0 14 -76 73 -95 73 -30 1 -154 18 -202 28 -23 5 -40 6 -38 2z"/>
<path d="M2872 1622 c-9 -29 -9 -41 4 -59 8 -13 19 -23 24 -23 13 0 13 27 1
35 -5 3 -7 20 -4 39 7 47 -11 53 -25 8z"/>
<path d="M410 1603 c-15 -48 -10 -108 9 -108 10 0 14 18 15 73 1 79 -7 92 -24
35z"/>
<path d="M2861 1464 c-13 -29 -6 -64 12 -64 7 0 12 18 13 45 1 51 -7 57 -25
19z"/>
<path d="M405 1321 c5 -37 2 -57 -11 -82 -12 -22 -18 -60 -20 -110 -1 -42 -7
-87 -14 -99 -11 -21 -10 -26 8 -38 l21 -14 -26 -40 c-21 -31 -24 -44 -16 -56
6 -10 8 -31 6 -48 -3 -20 1 -35 11 -43 12 -10 13 -18 5 -33 -8 -15 -6 -25 6
-44 8 -13 20 -24 26 -24 18 0 22 31 5 43 -15 11 -16 17 -5 40 11 24 10 29 -5
40 -15 11 -16 16 -4 41 11 25 10 30 -4 39 -15 10 -13 15 13 53 34 50 36 64 9
64 -23 0 -25 17 -5 44 11 14 11 22 2 36 -8 14 -8 25 2 43 9 17 10 30 3 43 -10
18 0 70 18 88 13 13 13 49 -2 81 -19 41 -30 29 -23 -24z"/>
<path d="M848 1330 c-15 -11 -31 -20 -37 -20 -6 0 -11 -9 -11 -20 0 -11 7 -20
15 -20 8 0 15 7 15 15 0 9 9 15 24 15 14 0 37 5 52 11 24 9 30 7 45 -12 13
-17 23 -21 47 -16 25 5 33 2 47 -19 14 -22 21 -24 60 -19 38 6 44 5 50 -14 5
-16 15 -21 43 -21 26 0 41 -6 50 -20 7 -12 23 -20 40 -20 16 0 32 -8 40 -20 6
-11 27 -26 46 -34 21 -9 36 -23 40 -39 3 -14 19 -33 34 -42 15 -9 35 -30 45
-47 10 -17 33 -36 55 -44 25 -10 44 -27 57 -52 18 -32 26 -38 68 -44 60 -8 77
-22 77 -61 0 -20 10 -41 27 -59 14 -15 29 -44 32 -65 7 -41 26 -56 98 -73 26
-7 44 -17 48 -29 9 -28 145 -47 198 -28 33 12 45 12 78 0 40 -13 89 -9 89 8 0
5 -16 9 -35 9 -19 0 -35 3 -35 8 0 4 15 23 33 43 37 41 73 106 64 115 -9 9
-57 -46 -57 -65 0 -9 -16 -29 -36 -44 -34 -28 -36 -28 -49 -10 -14 19 -30 12
-30 -14 0 -42 -163 -39 -201 3 -12 12 -39 25 -60 29 -57 9 -68 18 -75 61 -4
24 -16 46 -33 59 -22 17 -25 26 -20 52 8 42 -22 73 -72 73 -47 0 -70 13 -82
50 -8 22 -23 36 -57 50 -29 13 -49 28 -55 45 -5 14 -23 34 -40 43 -17 10 -35
31 -41 50 -8 25 -18 34 -41 39 -18 3 -34 15 -40 29 -7 15 -23 26 -45 30 -18 3
-38 15 -44 25 -7 13 -21 19 -44 19 -21 0 -43 8 -54 19 -15 15 -28 18 -59 14
-34 -5 -40 -2 -45 16 -4 17 -13 21 -46 21 -30 0 -41 4 -41 15 0 22 -25 29 -59
17 -18 -6 -32 -7 -38 -1 -6 6 -19 2 -35 -11z"/>
<path d="M1460 1312 c0 -31 14 -42 53 -42 l21 0 -22 16 c-12 8 -21 23 -20 32
2 9 -5 18 -14 20 -14 3 -18 -3 -18 -26z"/>
<path d="M2761 1274 c-12 -15 -21 -33 -21 -40 0 -8 -28 -40 -61 -72 -34 -31
-72 -73 -84 -92 -12 -19 -52 -70 -88 -113 -76 -88 -91 -113 -83 -133 9 -23 36
-17 36 9 0 27 19 58 75 117 24 25 60 70 81 100 20 30 60 75 87 100 27 24 59
65 70 90 12 25 23 48 25 53 9 18 -19 4 -37 -19z"/>
<path d="M1583 1265 c18 -11 27 -24 27 -41 0 -14 12 -36 28 -51 22 -20 27 -34
27 -70 0 -32 5 -49 17 -56 20 -13 37 -2 21 14 -6 6 -8 30 -6 53 5 39 2 45 -25
65 -23 16 -32 31 -34 59 -3 36 -5 37 -43 40 l-40 2 28 -15z"/>
<path d="M1770 1005 c-19 -49 -5 -75 39 -75 23 0 23 1 7 19 -10 11 -16 31 -14
46 4 37 -19 44 -32 10z"/>
<path d="M1885 869 c-5 -31 -3 -45 11 -60 17 -19 44 -26 44 -11 0 4 -7 15 -15
26 -10 13 -11 25 -4 43 13 35 11 43 -10 43 -15 0 -21 -10 -26 -41z"/>
<path d="M2016 724 c-13 -33 -5 -63 20 -83 48 -38 73 -23 31 17 -17 16 -22 30
-19 52 3 22 0 30 -11 30 -8 0 -18 -7 -21 -16z"/>
<path d="M1060 483 c-21 -110 -43 -167 -70 -180 -30 -15 -33 -37 -4 -41 27 -4
44 18 60 76 7 26 13 39 13 30 1 -10 7 -18 15 -18 13 0 26 77 26 156 0 58 -27
42 -40 -23z"/>
<path d="M2486 504 c-15 -38 31 -54 93 -33 47 17 39 32 -14 25 -37 -6 -45 -4
-45 8 0 21 -26 21 -34 0z"/>
<path d="M2792 504 c6 -33 31 -37 93 -13 44 17 54 24 38 27 -12 2 -38 -1 -57
-7 -22 -5 -38 -6 -42 0 -9 16 -36 10 -32 -7z"/>
<path d="M1637 493 c-4 -3 -24 -9 -44 -12 -32 -5 -41 -13 -56 -45 -24 -51 -16
-68 11 -23 12 21 29 37 39 37 9 0 36 7 60 16 40 15 44 15 85 -4 69 -32 79 -33
128 -21 62 16 90 7 150 -46 63 -56 102 -59 188 -16 32 16 94 37 138 45 103 21
110 24 97 37 -17 17 -161 -16 -245 -56 -40 -19 -78 -35 -85 -35 -7 0 -30 15
-50 34 -64 57 -98 69 -175 64 -55 -4 -77 -1 -106 13 -35 18 -122 26 -135 12z"/>
<path d="M1186 328 c24 -79 40 -93 91 -85 21 4 58 21 82 38 25 17 59 32 76 33
29 1 30 0 30 -44 0 -33 4 -45 15 -45 12 0 15 13 15 55 0 54 0 55 -31 58 -20 2
-55 -9 -100 -32 -97 -50 -123 -47 -138 17 -4 18 -13 27 -27 27 -17 0 -19 -4
-13 -22z"/>
<path d="M676 321 c-10 -15 5 -89 20 -102 16 -13 37 -2 27 14 -4 7 -10 30 -13
51 -5 39 -22 57 -34 37z"/>
<path d="M560 285 c-14 -38 -13 -48 14 -87 13 -19 26 -51 30 -71 8 -41 33 -60
73 -55 42 5 39 26 -4 30 -36 3 -38 5 -43 43 -3 22 -16 54 -29 72 -16 21 -22
40 -19 57 7 36 -10 44 -22 11z"/>
<path d="M847 273 c-2 -5 0 -23 5 -40 6 -23 15 -33 28 -33 28 0 32 14 14 49
-14 29 -38 41 -47 24z"/>
</g>
</svg>
